<!-- Generator: Adobe Illustrator 24.3.0, SVG Export Plug-In  -->
<svg version="1.1" xmlns="http://www.w3.org/2000/svg" xmlns:xlink="http://www.w3.org/1999/xlink" x="0px" y="0px" width="100%"
	 height="100%" viewBox="0 0 71.74 65.01" style="overflow:visible;enable-background:new 0 0 71.74 65.01;"
	 xml:space="preserve">
<style type="text/css">
	.st0{fill:#FFFFFF;}
</style>
<defs>
</defs>
<g id="Grupo_16_1_" transform="translate(-2765.22 -1100.813)">
	<path id="Trazado_11_1_" class="st0" d="M2788.52,1103.32c-0.16-0.25-0.31-0.51-0.44-0.78c4.17-1.24,8.51-1.82,12.86-1.72h0.31
		c4.35-0.1,8.69,0.48,12.86,1.72c-0.13,0.27-0.27,0.53-0.43,0.78c-0.3-0.12-0.62-0.2-0.94-0.26l-1-0.17l-0.25,0.99
		c-0.31,0.96-0.84,1.84-1.56,2.55c-0.34-0.19-0.71-0.31-1.09-0.37l-0.94-0.15l-0.28,0.9c-0.4,1.04-0.99,1.99-1.75,2.8
		c-0.25-0.17-0.51-0.33-0.78-0.46l-0.7-0.35l-0.55,0.55c-0.85,0.81-1.77,1.56-2.74,2.22c-0.97-0.67-1.89-1.41-2.74-2.22l-0.55-0.55
		l-0.71,0.35c-0.27,0.14-0.53,0.29-0.78,0.46c-0.75-0.82-1.34-1.77-1.74-2.8l-0.28-0.9l-0.94,0.15c-0.38,0.06-0.75,0.19-1.09,0.37
		c-0.72-0.71-1.25-1.58-1.55-2.55l-0.24-0.99l-1.01,0.17C2789.14,1103.12,2788.83,1103.2,2788.52,1103.32z"/>
	<path id="Trazado_12_1_" class="st0" d="M2787.33,1126.97c0,1.17,0.95,2.12,2.12,2.12c1.17,0,2.12-0.95,2.12-2.12
		c0.38,0.54,0.71,1.13,0.97,1.74c0.16,0.39,0.3,0.79,0.4,1.2c-1.62,1.92-4.5,2.17-6.42,0.55s-2.17-4.5-0.55-6.42
		c0.11-0.13,0.22-0.25,0.34-0.36l0.01-0.01c0.3-0.29,0.64-0.53,1.01-0.72c0.94,0.51,1.78,1.17,2.51,1.95
		c-0.13-0.02-0.26-0.04-0.39-0.04C2788.28,1124.85,2787.33,1125.8,2787.33,1126.97C2787.33,1126.97,2787.33,1126.97,2787.33,1126.97
		z"/>
	<path id="Trazado_13_1_" class="st0" d="M2814.87,1126.97c0-1.17-0.95-2.12-2.12-2.12c-0.13,0-0.26,0.01-0.39,0.04
		c0.73-0.78,1.57-1.44,2.51-1.95c0.37,0.19,0.71,0.44,1.01,0.72c0,0,0.01,0.01,0.01,0.01l0,0c1.82,1.74,1.89,4.62,0.15,6.44
		c-1.74,1.82-4.62,1.89-6.44,0.15c-0.12-0.11-0.23-0.23-0.33-0.35c0.1-0.41,0.24-0.81,0.4-1.2c0.26-0.61,0.58-1.19,0.97-1.74
		c0,1.17,0.95,2.12,2.12,2.12C2813.92,1129.09,2814.87,1128.14,2814.87,1126.97L2814.87,1126.97z"/>
	<path id="Trazado_14_1_" class="st0" d="M2825.8,1118.54c3.51,4.46,4.32,11.88-0.39,16.57c-0.03,0.03-0.07,0.07-0.09,0.11
		c-1.29,1.67-5.33,3.56-6.81,4.16l-1.77,0.79c0.87-1.85,0.88-3.99,0.02-5.84l0,0c1.32,0.11,2.78,0.16,4.36,0.16
		c0.56,0,1.15-0.01,1.75-0.02l0.9-0.02l-0.29-0.84c-0.15-0.44-0.35-0.86-0.61-1.24c0.46-0.19,0.89-0.45,1.27-0.78l0.54-0.45
		l-0.5-0.51c-0.49-0.5-1.03-0.95-1.62-1.34c0.39-0.26,0.72-0.61,0.95-1.02l0.32-0.66l-0.69-0.26c-0.28-0.1-0.51-0.19-0.71-0.27
		c-0.5-0.21-1.01-0.37-1.54-0.47c0.7-1.13,1.15-2.39,1.33-3.7l0.11-0.64l-0.64-0.11c-0.84-0.16-1.69-0.25-2.54-0.27
		c0.19-0.47,0.35-0.94,0.48-1.43l0.26-1l-1.01,0.19c-1.6,0.3-3.13,0.85-4.56,1.62l0,0c-0.04,0.01-0.07,0.02-0.11,0.04
		c-2.71,1.55-4.87,3.9-6.18,6.73c-0.74,2.09-1.1,4.29-1.09,6.51c0,0.48,0.39,0.88,0.88,0.88s0.88-0.39,0.88-0.88l0,0
		c0.01-0.76,0.05-1.52,0.14-2.28c1.98,1.07,4.16,1.72,6.41,1.9c1.31,2.65,1.09,4.86-0.73,6.99l0,0l-4.15,1.85
		c-1.79,0.92-3.43,2.1-4.87,3.5c-0.76,0.7-1.54,1.49-2.35,2.36c0.63-2.98,1.07-5.99,1.32-9.03c-0.14-1.22-0.52-2.39-1.12-3.46
		c-0.52-0.78-1.33-1.3-2.25-1.46h-0.03c-0.92,0.16-1.73,0.69-2.24,1.46c-0.6,1.07-0.98,2.25-1.12,3.46
		c0.25,3.03,0.69,6.05,1.32,9.03c-0.83-0.9-1.64-1.7-2.41-2.41c-1.43-1.38-3.05-2.54-4.81-3.45l-4.15-1.85l0,0
		c-1.82-2.13-2.04-4.33-0.73-6.99l0,0c2.24-0.18,4.43-0.83,6.41-1.9c0.09,0.76,0.14,1.52,0.14,2.28c-0.02,0.48,0.36,0.89,0.85,0.91
		c0.48,0.02,0.89-0.36,0.91-0.85c0-0.02,0-0.04,0-0.06c0.01-2.22-0.35-4.42-1.09-6.51c-1.31-2.83-3.47-5.19-6.18-6.73
		c-0.04-0.02-0.07-0.03-0.11-0.04l0,0c-1.42-0.77-2.96-1.32-4.55-1.62l-1.01-0.19l0.26,1c0.13,0.49,0.3,0.96,0.49,1.43
		c-0.85,0.02-1.7,0.1-2.54,0.27l-0.64,0.11l0.1,0.64c0.19,1.31,0.64,2.57,1.34,3.7c-0.53,0.1-1.05,0.26-1.54,0.47
		c-0.2,0.08-0.43,0.17-0.71,0.27l-0.68,0.26l0.32,0.66c0.23,0.41,0.55,0.76,0.94,1.02c-0.59,0.39-1.13,0.84-1.62,1.34l-0.5,0.51
		l0.54,0.45c0.38,0.33,0.81,0.59,1.27,0.78c-0.26,0.39-0.47,0.8-0.61,1.24l-0.29,0.84l0.9,0.02c0.6,0.01,1.18,0.02,1.75,0.02
		c1.59,0,3.04-0.05,4.36-0.16c-0.86,1.86-0.85,4,0.03,5.84l-1.77-0.79c-1.48-0.6-5.52-2.49-6.81-4.16
		c-0.03-0.04-0.06-0.07-0.09-0.11c-4.71-4.69-3.89-12.11-0.39-16.57c2.63-3.34,6.08-4.19,9.25-2.27c0.77,0.56,1.3,0.91,1.7,1.19
		c0.69,0.44,1.33,0.95,1.92,1.51c7.57,7.01,10.36,6.99,11.58,6.97c0.05,0,0.09,0,0.12,0h0.01l0.05,0.01c0.04,0,0.08,0,0.12,0
		l0.05-0.01h0.01c0.04,0,0.07,0,0.12,0c1.22,0.02,4.01,0.04,11.58-6.97c0.59-0.56,1.23-1.07,1.92-1.51c0.41-0.28,0.93-0.63,1.7-1.19
		C2819.72,1114.35,2823.18,1115.2,2825.8,1118.54z"/>
	<path id="Trazado_15_1_" class="st0" d="M2819.42,1104.99c-0.02-0.01-0.05-0.03-0.07-0.04c0.01,0.76-0.02,1.53-0.11,2.29
		c-0.08,0.94-0.33,1.85-0.74,2.7c-0.19,0.36-0.56,0.58-0.96,0.57c-0.18,0-0.36-0.04-0.52-0.13c-0.53-0.29-0.73-0.95-0.44-1.48
		c0.26-0.6,0.43-1.24,0.49-1.89c0.2-1.26,0.15-2.55-0.14-3.8c0-0.01,0-0.02-0.01-0.04c-0.09-0.29-0.21-0.57-0.36-0.84
		c-0.38,1.16-0.98,2.24-1.77,3.17l-0.84,1l-0.76-0.91c-0.6,1.14-1.39,2.17-2.33,3.05l-0.74,0.73l-0.77-0.69l-0.1-0.08
		c-0.67,1.2-1.5,2.31-2.46,3.3l-0.82,0.89l-0.8-0.9c-0.12-0.14-0.26-0.27-0.41-0.38c-0.95,0.84-1.96,1.61-3.02,2.3
		c-0.01,0.01-0.03,0.02-0.04,0.03c-0.08,0.05-0.17,0.1-0.27,0.12c0,0,0,0.01-0.01,0.01c-0.03,0.01-0.06,0.02-0.09,0.02
		c-0.03,0.01-0.05,0.01-0.08,0.01c-0.04,0-0.09,0.01-0.13,0.01s-0.09-0.01-0.13-0.01c-0.03,0-0.05-0.01-0.08-0.01
		c-0.03-0.01-0.06-0.01-0.09-0.02c0,0-0.01,0-0.01-0.01c-0.05-0.01-0.1-0.03-0.14-0.05c-0.05-0.02-0.09-0.04-0.13-0.07
		c-0.01,0-0.01,0-0.02-0.01c-0.01-0.01-0.02-0.01-0.03-0.02c-1.06-0.69-2.07-1.46-3.02-2.3c-0.15,0.12-0.28,0.24-0.41,0.38l-0.8,0.9
		l-0.82-0.89c-0.96-0.99-1.78-2.1-2.46-3.3c-0.03,0.03-0.06,0.05-0.09,0.08l-0.77,0.69l-0.74-0.73c-0.94-0.88-1.73-1.91-2.34-3.05
		l-0.76,0.91l-0.84-1c-0.79-0.93-1.4-2.01-1.78-3.17c-0.16,0.27-0.29,0.57-0.37,0.87c-0.29,1.25-0.34,2.54-0.14,3.8
		c0.06,0.65,0.22,1.29,0.49,1.89c0.28,0.53,0.08,1.19-0.45,1.48c-0.16,0.09-0.34,0.13-0.52,0.13c-0.4,0-0.77-0.22-0.97-0.57
		c-0.41-0.85-0.66-1.76-0.74-2.7c-0.09-0.76-0.13-1.52-0.11-2.29c-0.02,0.01-0.05,0.03-0.07,0.04c-9.02,5.11-17.55,9.94-17.55,39.99
		c0,5.67,4.64,7.38,13.53,10.15c6.68,2.08,14.94,4.65,22.34,10.7l0,0c7.4-6.05,15.66-8.62,22.34-10.7
		c8.89-2.77,13.53-4.48,13.53-10.15C2836.97,1114.94,2828.45,1110.11,2819.42,1104.99z M2827.01,1136.61
		c-1.92,2.41-7.06,4.54-7.64,4.78l-8.07,3.6c-2.17,1.19-4.13,2.74-5.78,4.58c-1.12,1.15-2.3,2.48-3.54,4
		c-1.87,2.28-0.77,1.3-0.87,1.35l-0.87-1.35c-1.27-1.54-2.47-2.9-3.6-4.06c-1.64-1.82-3.58-3.34-5.73-4.52l-8.07-3.6
		c-0.58-0.24-5.72-2.36-7.64-4.78c-5.52-5.55-4.6-14.23-0.52-19.43c3.34-4.25,8-5.3,12.16-2.76c0.02,0.01,0.05,0.03,0.07,0.05
		c0.77,0.55,1.28,0.9,1.69,1.18c0.78,0.5,1.51,1.08,2.18,1.72c6.93,6.42,9.29,6.39,10.07,6.39c0.1,0,0.19,0,0.27,0h0.01
		c0.08,0,0.17,0,0.27,0c0.77,0,3.14,0.03,10.07-6.39c0.67-0.64,1.4-1.22,2.18-1.72c0.4-0.27,0.92-0.62,1.69-1.18
		c0.02-0.02,0.04-0.03,0.07-0.05c4.16-2.54,8.81-1.49,12.15,2.76C2831.61,1122.38,2832.53,1131.06,2827.01,1136.61L2827.01,1136.61z
		"/>
</g>
</svg>
